<?xml version="1.0" standalone="no"?>
<!DOCTYPE svg PUBLIC "-//W3C//DTD SVG 20010904//EN" "http://www.w3.org/TR/2001/REC-SVG-20010904/DTD/svg10.dtd">
<!-- Created using Krita: https://krita.org -->
<svg xmlns="http://www.w3.org/2000/svg" 
    xmlns:xlink="http://www.w3.org/1999/xlink"
    xmlns:krita="http://krita.org/namespaces/svg/krita"
    xmlns:sodipodi="http://sodipodi.sourceforge.net/DTD/sodipodi-0.dtd"
    width="184.32pt"
    height="184.32pt"
    viewBox="0 0 184.32 184.32">
<defs/>
<path id="shape0" transform="matrix(0.719999942779545 0 0 0.719999942779545 11.5200029373166 3.35693322028874e-06)" fill="#268bd2" fill-rule="evenodd" stroke="#0066cc" stroke-width="0" stroke-linecap="square" stroke-linejoin="bevel" d="M192 0L32 0C14.3269 -1.08217e-15 3.55272e-15 14.3269 0 32L0 224C3.55272e-15 241.674 14.3269 256 32 256L192 256C209.674 256 224 241.674 224 224L224 32C224 14.3269 209.674 1.08217e-15 192 0ZM192 208C192 216.837 184.837 224 176 224L48 224C39.1635 224 32 216.837 32 208L32 48C32 39.1635 39.1635 32 48 32L176 32C184.837 32 192 39.1635 192 48ZM152 64L72 64C67.5818 64 64 67.5818 64 72C64 76.4182 67.5818 80 72 80L152 80C156.418 80 160 76.4182 160 72C160 67.5818 156.418 64 152 64ZM152 96L72 96C67.5818 96 64 99.5818 64 104C64 108.418 67.5818 112 72 112L152 112C156.418 112 160 108.418 160 104C160 99.5818 156.418 96 152 96ZM152 128L72 128C67.5818 128 64 131.582 64 136C64 140.418 67.5818 144 72 144L152 144C156.418 144 160 140.418 160 136C160 131.582 156.418 128 152 128ZM104 160L72 160C67.5818 160 64 163.582 64 168C64 172.418 67.5818 176 72 176L104 176C108.418 176 112 172.418 112 168C112 163.582 108.418 160 104 160Z" sodipodi:nodetypes="cccccccccccccccccccccccccccccccccccccccccccccc"/>
</svg>
